<mxfile host="65bd71144e">
    <diagram id="yzgxqkjAU4LImeN6F_Re" name="Page-1">
        <mxGraphModel dx="447" dy="314" grid="1" gridSize="10" guides="1" tooltips="1" connect="1" arrows="1" fold="1" page="1" pageScale="1" pageWidth="850" pageHeight="1100" math="0" shadow="0">
            <root>
                <mxCell id="0"/>
                <mxCell id="1" parent="0"/>
                <mxCell id="14" value="" style="group;fillColor=#b0e3e6;strokeColor=#0e8088;" vertex="1" connectable="0" parent="1">
                    <mxGeometry x="40" y="40" width="150" height="200" as="geometry"/>
                </mxCell>
                <mxCell id="2" value="&lt;b&gt;&lt;font color=&quot;#e6e6e6&quot;&gt;Route Factory&lt;/font&gt;&lt;/b&gt;" style="rounded=0;whiteSpace=wrap;html=1;fillColor=#6d8764;strokeColor=#3A5431;fontColor=#ffffff;" vertex="1" parent="14">
                    <mxGeometry width="150" height="37.5" as="geometry"/>
                </mxCell>
                <mxCell id="10" value="" style="rounded=0;whiteSpace=wrap;html=1;labelBackgroundColor=none;fillColor=#647687;gradientDirection=north;fontColor=#ffffff;strokeColor=none;" vertex="1" parent="14">
                    <mxGeometry y="37.5" width="150" height="162.5" as="geometry"/>
                </mxCell>
                <mxCell id="11" value="&lt;font color=&quot;#e6e6e6&quot;&gt;&lt;b&gt;name&lt;/b&gt;: string&lt;/font&gt;" style="text;html=1;align=center;verticalAlign=middle;whiteSpace=wrap;rounded=0;labelBackgroundColor=none;fillColor=#76608a;strokeColor=#432D57;fontColor=#ffffff;" vertex="1" parent="14">
                    <mxGeometry x="10" y="50" width="70" height="25" as="geometry"/>
                </mxCell>
                <mxCell id="12" value="&lt;font color=&quot;#e6e6e6&quot;&gt;&lt;b&gt;locality&lt;/b&gt;: string[ ]&lt;/font&gt;" style="text;html=1;align=center;verticalAlign=middle;whiteSpace=wrap;rounded=0;labelBackgroundColor=none;fillColor=#76608a;strokeColor=#432D57;fontColor=#ffffff;" vertex="1" parent="14">
                    <mxGeometry x="10" y="80" width="90" height="25" as="geometry"/>
                </mxCell>
                <mxCell id="13" value="&lt;font color=&quot;#e6e6e6&quot;&gt;&lt;b&gt;visits&lt;/b&gt;: [{&lt;br&gt;&lt;span style=&quot;white-space: pre&quot;&gt;&#9;&lt;/span&gt;&lt;b&gt;clientId&lt;/b&gt;: string;&lt;br&gt;&lt;/font&gt;&lt;div&gt;&lt;font color=&quot;#e6e6e6&quot;&gt;&lt;span style=&quot;white-space: pre&quot;&gt;&#9;&lt;/span&gt;&lt;b&gt;visitTypeId&lt;/b&gt;: string;&lt;/font&gt;&lt;/div&gt;&lt;font color=&quot;#e6e6e6&quot;&gt;}]&lt;/font&gt;" style="text;html=1;align=left;verticalAlign=middle;whiteSpace=wrap;rounded=0;labelBackgroundColor=none;fillColor=#76608a;shadow=0;sketch=0;glass=0;strokeColor=#432D57;fontColor=#ffffff;" vertex="1" parent="14">
                    <mxGeometry x="10" y="110" width="130" height="75" as="geometry"/>
                </mxCell>
            </root>
        </mxGraphModel>
    </diagram>
</mxfile>